# xmcd
#
# Track frame offsets: 
#        150
#        16357
#        43289
#        49442
#        76341
#        89164
#        107369
#        122738
#        134661
#        154942
#        176518
#        190708
#        225623
#
# Disc length: 3267 seconds
#
# Revision: 2
# Processed by: cddbd v1.5.2PL0 Copyright (c) Steve Scherf et al.
# Submitted via: ExactAudioCopy v0.99pb5
#
DISCID=b00cc10d
DTITLE=Julian Sas - A Smile To My Soul
DYEAR=1997
DGENRE=Hard Blues
TTITLE0=Sugarcup Boogie
TTITLE1=Is This What They Call The Blues
TTITLE2=Horror Tone Groove
TTITLE3=Last Man In First Man Out
TTITLE4=My Love Is Tumblin' Down
TTITLE5=Crossroad Call
TTITLE6=I Want Your Love
TTITLE7=Never Gettin' Tired
TTITLE8=Stone Desert
TTITLE9=My Life Is Gonna Be All Mine
TTITLE10=Boot Hill
TTITLE11=Where Will It End?!
TTITLE12=Makin' My Return
EXTD=
EXTT0=
EXTT1=
EXTT2=
EXTT3=
EXTT4=
EXTT5=
EXTT6=
EXTT7=
EXTT8=
EXTT9=
EXTT10=
EXTT11=
EXTT12=
PLAYORDER=
